<svg width="243" height="317" viewBox="0 0 243 317" fill="none" xmlns="http://www.w3.org/2000/svg">
<path d="M117.5 3C118.5 -1 124.5 -1 125.5 3C131.5 20 141.5 38 151.5 51C160.5 63 173.5 77 182.5 87C185.5 90 184.5 93 180.5 94C167.5 97 157.5 92 146.5 84C155.5 102 169.5 118 186.5 132C197.5 142 205.5 149 214.5 155C218.5 157 218.5 161 214.5 162C200.5 166 185.5 162 170.5 151C182.5 175 201.5 195 231.5 211C234.5 213 234.5 216 231.5 218C216.5 222 197.5 218 177.5 205C193.5 229 215.5 246 241.5 256C243.5 258 243.5 262 241.5 264C217.5 272 180.5 266 132.5 245L136.5 311C136.5 315 134.5 317 130.5 317H112.5C108.5 317 106.5 315 106.5 311L110.5 245C62.5 266 25.5 272 1.5 264C-0.5 262 -0.5 258 1.5 256C27.5 246 49.5 229 65.5 205C45.5 218 26.5 222 11.5 218C8.5 216 8.5 213 11.5 211C41.5 195 60.5 175 72.5 151C56.5 162 41.5 166 28.5 162C24.5 161 24.5 157 28.5 155C37.5 149 45.5 142 56.5 132C73.5 118 87.5 102 96.5 84C85.5 92 75.5 97 62.5 94C58.5 93 57.5 90 60.5 87C69.5 77 82.5 63 91.5 51C101.5 38 111.5 20 117.5 3Z" fill="#214B56"/>
<path d="M121.5 0.5C123.069 0.5 124.581 1.38743 125.015 3.12109L125.021 3.14453L125.028 3.16602C131.045 20.2145 141.07 38.2584 151.1 51.2988V51.2998C160.117 63.3229 173.139 77.3467 182.128 87.335L182.137 87.3447L182.146 87.3535C183.58 88.7874 183.947 90.105 183.646 91.1064C183.343 92.1168 182.293 93.0358 180.378 93.5146C167.602 96.4594 157.76 91.571 146.794 83.5957L146.053 84.2236C155.089 102.295 169.133 118.342 186.163 132.37H186.164C197.163 142.369 205.188 149.393 214.223 155.416L214.249 155.434L214.276 155.447C216.172 156.395 217 157.752 217 158.875C217 159.958 216.223 161.054 214.379 161.515L214.371 161.517L214.362 161.52C200.558 165.463 185.717 161.539 170.796 150.597L170.053 151.224C182.1 175.318 201.171 195.386 231.239 211.428C232.636 212.365 233.25 213.472 233.25 214.5C233.25 215.516 232.65 216.607 231.288 217.537C216.483 221.452 197.664 217.51 177.772 204.581L177.084 205.277C193.122 229.334 215.167 246.384 241.213 256.425C242.054 257.311 242.5 258.636 242.5 260C242.5 261.358 242.058 262.677 241.225 263.562C217.409 271.442 180.603 265.499 132.7 244.542L131.951 244.214L132.001 245.03L135.999 311.011C135.997 312.928 135.518 314.275 134.646 315.146C133.773 316.02 132.423 316.5 130.5 316.5H112.5C110.577 316.5 109.227 316.02 108.354 315.146C107.482 314.275 107.002 312.928 107 311.011L110.999 245.03L111.049 244.214L110.3 244.542C62.3966 265.5 25.5902 271.442 1.77441 263.562C0.9414 262.677 0.5 261.358 0.5 260C0.5 258.636 0.945431 257.311 1.78613 256.425C27.8322 246.384 49.8783 229.334 65.916 205.277L65.2275 204.581C45.3361 217.51 26.5157 221.452 11.7109 217.537C10.3494 216.607 9.75 215.516 9.75 214.5C9.75 213.472 10.363 212.365 11.7598 211.428C41.8287 195.386 60.9002 175.318 72.9473 151.224L72.2168 150.588C56.2778 161.546 41.4397 165.458 28.6475 161.522L28.6338 161.519L28.6211 161.515C26.7769 161.054 26 159.958 26 158.875C26 157.752 26.8285 156.395 28.7236 155.447L28.751 155.434L28.7773 155.416C36.6826 150.146 43.8147 144.11 52.8428 135.984L56.8359 132.37C73.8658 118.342 87.9113 102.296 96.9473 84.2236L96.2061 83.5957C85.2397 91.5712 75.3977 96.4599 62.6211 93.5146C60.7058 93.0358 59.6566 92.1167 59.3535 91.1064C59.0531 90.105 59.4197 88.7874 60.8535 87.3535L60.8633 87.3447L60.8721 87.335C69.8615 77.3467 82.8831 63.3229 91.9004 51.2998L91.8994 51.2988C101.93 38.2583 111.954 20.2147 117.972 3.16602L117.979 3.14453L117.985 3.12109C118.419 1.38743 119.931 0.5 121.5 0.5Z" stroke="#214B56" stroke-opacity="0.4"/>
</svg>
